<svg width="35" height="35" viewBox="0 0 35 35" fill="none" xmlns="http://www.w3.org/2000/svg">
<g clip-path="url(#clip0_372_11)">
<path d="M21.1071 4.86554C20.2437 4.14289 19.2511 3.5359 18.2162 3.09334C18.1135 3.04939 18.0178 3.08249 17.9555 3.14459C17.8907 3.1026 17.808 3.09281 17.7204 3.15314C15.2247 4.87302 12.6581 6.35285 9.9691 7.74566C9.78848 7.83926 9.84578 8.04159 9.9828 8.11953C9.81339 8.12896 9.71018 8.38734 9.88902 8.51297C10.3437 8.83239 10.798 9.15199 11.2516 9.47301C11.64 9.74794 12.0742 10.1611 12.5453 10.2581C12.6738 10.2845 12.8015 10.1652 12.7684 10.0385C12.8163 10.1037 12.901 10.1448 12.996 10.0992C15.7987 8.75089 18.4624 7.09667 21.0132 5.32145C21.0676 5.28355 21.0957 5.23425 21.1109 5.18265C21.1897 5.09296 21.2153 4.95594 21.1071 4.86554ZM12.8158 9.79047C12.7367 9.83727 12.7273 9.90845 12.744 9.97394C12.4762 9.58512 11.9755 9.35147 11.5831 9.09967C11.0904 8.78364 10.5971 8.46884 10.1047 8.15227C10.1339 8.15103 10.164 8.14515 10.1947 8.13145C12.9282 6.91534 15.5532 5.33871 17.9694 3.57879C18.0016 3.5553 18.0254 3.5279 18.0427 3.49836C18.895 3.98131 19.7127 4.49701 20.5247 5.03993C18.0067 6.71515 15.4183 8.25032 12.8158 9.79047Z" fill="#6700C1"/>
<path d="M33.5152 10.7682C33.4994 10.7501 33.4937 10.7285 33.4688 10.7139C27.8475 7.41814 22.4818 3.96147 17.2748 0.0364404C17.1339 -0.0697955 16.962 0.0757672 16.9508 0.222754C12.368 2.57418 7.32832 4.62843 3.19384 7.72066C3.12996 7.76835 3.10932 7.83561 3.11448 7.8995C3.05397 7.95768 3.00806 8.03456 3.00646 8.11553C1.19209 9.40833 0.708066 12.0253 2.25391 13.727C2.13273 13.8256 2.07312 14.017 2.21637 14.1292C3.54316 15.1664 4.89486 16.1861 6.27023 17.1789C5.77642 17.3244 5.28226 17.5328 4.82689 17.6935C4.76923 17.6705 4.7041 17.6659 4.64182 17.6967C2.27171 18.8736 1.93129 22.2189 3.68623 24.0498C3.74744 24.1137 3.82877 24.107 3.89746 24.0742C4.17434 24.2684 4.45177 24.4618 4.72866 24.6558C4.72919 24.6563 4.73008 24.6565 4.73061 24.6572C6.73575 26.0617 8.74284 27.4634 10.7487 28.8673C10.7158 28.9162 10.7345 28.9984 10.8112 28.9968C10.8508 28.9959 10.8905 28.9951 10.9302 28.9943C13.7493 30.9676 16.5641 32.9471 19.3602 34.9524C19.5196 35.0669 19.6723 34.9576 19.7193 34.8099C19.7385 34.8003 19.7476 34.7809 19.7613 34.7652C19.8159 34.8366 19.9094 34.874 20.0117 34.8112C24.38 32.1334 28.7013 29.3789 33.0684 26.6984C33.3287 26.5386 33.1481 26.1609 32.8965 26.2009C32.8819 26.1906 32.8772 26.1742 32.8582 26.1671C32.0105 25.8459 31.3501 25.203 31.1937 24.2854C31.02 23.267 31.5677 22.6677 32.1633 21.9468C32.2516 21.8401 32.2057 21.6454 32.0825 21.6046C32.0758 21.5854 32.0635 21.5687 32.0519 21.5518C32.1019 21.5625 32.1514 21.5792 32.2016 21.589C32.3712 21.6221 32.4359 21.3884 32.2727 21.3306C31.0703 20.9037 29.9955 20.3638 28.9225 19.6751C28.8976 19.6593 28.8737 19.6534 28.8499 19.6467C30.2438 18.8245 31.6339 18.0033 33.0253 17.2109C33.326 17.0395 33.0666 16.5843 32.7666 16.7306C31.2686 15.1935 33.0112 12.5943 33.6616 10.9629C33.7038 10.8563 33.6115 10.7798 33.5152 10.7682ZM5.89725 16.1318C6.98595 16.0215 8.0693 16.0005 9.16458 15.9964C9.32545 15.9958 9.32314 15.7576 9.16458 15.7481C7.99225 15.6794 6.81618 15.7871 5.65773 15.9672C4.98864 15.4981 4.32934 15.0096 3.66754 14.5256C4.79521 14.4881 5.92377 14.4619 7.04948 14.3833C7.18401 14.3738 7.18721 14.1692 7.04948 14.1715C5.87074 14.1907 4.69396 14.2676 3.51682 14.3288C3.48461 14.3304 3.46041 14.3441 3.44422 14.3637C3.1716 14.1631 2.89382 13.9729 2.62298 13.7688C2.62013 13.7622 2.62369 13.7562 2.61942 13.7496C2.42119 13.4359 2.2774 13.112 2.15924 12.786C2.76926 12.7557 3.37944 12.7292 3.98857 12.6874C4.12968 12.6778 4.13199 12.4587 3.98857 12.4657C3.3556 12.4968 2.72352 12.544 2.09127 12.5867C1.90442 11.9854 1.85993 11.3789 1.953 10.7999C2.86713 10.8083 3.78019 10.8161 4.69431 10.8001C4.83062 10.7978 4.8308 10.5908 4.69431 10.5883C3.79496 10.5725 2.89649 10.5799 1.99731 10.5883C2.08451 10.2013 2.23736 9.82936 2.45838 9.4836C2.77228 9.48894 3.08654 9.49837 3.40026 9.48805C3.51308 9.48431 3.51326 9.31633 3.40026 9.31259C3.12889 9.3037 2.85698 9.31153 2.58526 9.31651C2.79541 9.02698 3.04597 8.75383 3.36325 8.5136C8.17963 12.4769 13.3316 16.0645 18.6934 19.2452C18.7271 19.2651 18.7591 19.2706 18.7897 19.2706C17.6081 20.4827 17.0312 22.4817 17.8451 23.7954C16.7972 23.1642 15.7551 22.5294 14.7171 21.8908C15.3382 21.8443 15.9591 21.7863 16.5765 21.7077C16.6566 21.6975 16.6611 21.5728 16.5765 21.5787C15.9074 21.6253 15.2385 21.692 14.573 21.7758C14.5632 21.7771 14.5581 21.784 14.5506 21.7883C13.9888 21.442 13.4327 21.0888 12.8743 20.7387C13.9913 20.7095 15.1113 20.6878 16.2237 20.5885C16.3696 20.5756 16.3751 20.3542 16.2237 20.357C15.0252 20.3793 13.8274 20.4914 12.6326 20.5877C11.1886 19.6799 9.75893 18.7523 8.34032 17.8051C9.24377 17.7109 10.147 17.6179 11.0487 17.5066C11.1605 17.4929 11.1642 17.3162 11.0487 17.328C10.0725 17.4267 9.0991 17.5447 8.125 17.6623C7.37761 17.1611 6.63681 16.6477 5.89725 16.1318ZM16.502 32.2974C16.8321 32.2078 17.1672 32.1513 17.5174 32.1649C17.5983 32.1679 17.5981 32.0424 17.5174 32.0391C17.1205 32.0229 16.741 32.0889 16.3676 32.2024C15.9902 31.9362 15.6087 31.6762 15.2309 31.4107C16.1493 31.3629 17.0659 31.3602 17.9873 31.3817C18.1035 31.3844 18.1007 31.212 17.9873 31.2031C16.9951 31.1256 16.0019 31.1662 15.0125 31.2586C14.4986 30.8979 13.9801 30.5441 13.4653 30.1846C14.071 30.1964 14.6764 30.204 15.2823 30.1975C15.4015 30.1962 15.4017 30.0135 15.2823 30.0122C14.6547 30.0053 14.0276 30.0129 13.4001 30.0256C13.3562 30.0265 13.3348 30.0569 13.3288 30.09C12.7939 29.7166 12.2547 29.3494 11.7187 28.9774C12.7499 28.9563 13.7808 28.9328 14.8111 28.8781C14.9293 28.8719 14.9312 28.6915 14.8111 28.6929C13.6955 28.7057 12.5816 28.7545 11.4672 28.8038C10.209 27.9318 8.94837 27.0634 7.68191 26.2032C8.64817 26.1361 9.61266 26.0635 10.577 25.9697C10.6998 25.9578 10.7042 25.7681 10.577 25.7745C9.50447 25.8293 8.43535 25.9048 7.36516 25.9914C6.71013 25.5475 6.0494 25.1118 5.39116 24.6725C6.10065 24.652 6.80996 24.6182 7.51802 24.5775C7.66999 24.5687 7.6723 24.3346 7.51802 24.3392C6.69713 24.3634 5.87501 24.3933 5.05537 24.4481C4.6678 24.1902 4.28361 23.9274 3.89425 23.6722C3.8261 23.5688 3.78125 23.466 3.72253 23.3628C4.59573 23.3443 5.46875 23.3037 6.34088 23.2558C6.47612 23.2484 6.47772 23.0389 6.34088 23.0441C5.43458 23.0777 4.52793 23.1179 3.62323 23.1839C3.37571 22.7063 3.23459 22.233 3.17712 21.768C3.8487 21.6794 4.52028 21.5922 5.18723 21.4735C5.28689 21.4557 5.26518 21.2824 5.16303 21.2948C4.4943 21.376 3.83037 21.4877 3.16626 21.5988C3.13779 21.2238 3.17462 20.8564 3.26129 20.4974C3.71043 20.4471 4.1594 20.3955 4.60641 20.3271C4.73044 20.3081 4.70268 20.0935 4.57651 20.1061C4.15655 20.1485 3.73872 20.2058 3.3209 20.2649C3.53693 19.5749 3.96276 18.9238 4.5863 18.3364C9.22402 22.233 14.2534 25.8349 19.4839 28.8924C18.2872 30.3267 18.2893 32.5468 19.1488 34.1691C18.2678 33.5426 17.3848 32.9201 16.502 32.2974ZM32.4685 26.434C28.182 28.9961 23.9214 31.6298 19.8047 34.4569C19.7754 34.4771 19.7549 34.5014 19.7398 34.5273C18.6742 32.6185 18.9253 30.863 19.8823 28.9705C19.9086 28.9184 19.8985 28.8689 19.878 28.8235C19.9074 28.8203 19.9369 28.8144 19.9611 28.7904C21.4965 27.2568 23.8191 26.3844 25.7002 25.3542C27.4427 24.3999 29.2158 23.4816 30.933 22.4782C30.1386 23.7996 30.9369 25.8856 32.4685 26.434ZM31.7636 21.4797C29.1782 22.7291 26.6919 24.2153 24.1764 25.6012C22.6311 26.4525 20.8555 27.1581 19.7494 28.5794C14.6574 25.2296 9.70217 21.7883 4.83988 18.1113C4.86461 18.0901 4.88703 18.0682 4.9123 18.0472C4.9438 18.0213 4.96124 17.9923 4.97263 17.9624C5.53068 17.8253 6.16542 17.71 6.71689 17.4944C10.5981 20.2679 14.6682 22.817 18.9329 24.8899C18.9456 24.8962 18.9559 24.889 18.9684 24.8926C18.9968 24.9601 19.0682 25.0072 19.1609 24.9636C19.2129 24.9391 19.2643 24.9122 19.3162 24.8874C19.3321 24.8924 19.3449 24.8997 19.3609 24.9047C19.467 24.9369 19.5339 24.8609 19.5463 24.7748C22.6195 23.3016 25.6066 21.5578 28.5716 19.81C28.5365 19.912 28.5536 20.0337 28.6668 20.1118C29.5919 20.7499 30.6653 21.2103 31.7636 21.4797ZM32.3831 16.9415C28.0352 19.4034 23.4762 21.7237 19.325 24.5008C14.1159 20.8658 23.4495 17.1502 25.4685 16.0941C27.9794 14.7808 30.4199 13.3522 32.8228 11.8528C31.959 13.4832 30.9445 15.6889 32.3831 16.9415ZM33.0257 11.07C30.4582 12.6621 27.8461 14.1797 25.1759 15.5937C23.156 16.6635 20.6544 17.5015 18.968 19.1048C18.978 19.0384 18.9564 18.9671 18.884 18.9194C13.6959 15.5006 8.68394 11.8902 3.75687 8.10965C3.75812 8.0221 3.71221 7.9406 3.64299 7.89167C7.98246 5.16245 12.7435 3.02688 17.2997 0.690405C17.3229 0.678482 17.3362 0.661933 17.3535 0.647163C22.2024 4.6133 27.5432 8.20539 33.1326 11.0303C33.0979 11.0357 33.0621 11.0474 33.0257 11.07Z" fill="#6700C1"/>
<path d="M12.1057 27.3261C11.3429 27.2579 10.6037 27.3078 9.85218 27.4496C9.76338 27.4663 9.80235 27.5969 9.88919 27.5836C10.622 27.4706 11.3653 27.4421 12.1059 27.4718C12.2004 27.4754 12.1977 27.3343 12.1057 27.3261Z" fill="#6700C1"/>
<path d="M13.6094 18.8371C12.5865 18.978 11.6066 19.0689 10.5752 18.9762C10.4682 18.9666 10.4714 19.1294 10.5752 19.1417C11.5979 19.2613 12.6558 19.2698 13.6631 19.0317C13.7929 19.001 13.7338 18.82 13.6094 18.8371Z" fill="#6700C1"/>
</g>
<defs>
<clipPath id="clip0_372_11">
<rect width="35" height="35" fill="white"/>
</clipPath>
</defs>
</svg>
