<svg width="25" height="25" viewBox="0 0 25 25" fill="none" xmlns="http://www.w3.org/2000/svg">
<g clip-path="url(#clip0_354_26)">
<path d="M12.5 24.457C19.1034 24.457 24.4565 19.1039 24.4565 12.5005C24.4565 5.89706 19.1034 0.543945 12.5 0.543945C5.8966 0.543945 0.54348 5.89706 0.54348 12.5005C0.54348 19.1039 5.8966 24.457 12.5 24.457Z" fill="none"/>
<path d="M16.4674 1.44043C19.5924 3.55999 21.6576 7.14695 21.6576 11.223C21.6576 17.7448 16.3587 23.0437 9.83695 23.0437C8.50543 23.0437 7.20108 22.8263 6.00543 22.3915C7.90761 23.6959 10.1902 24.4296 12.663 24.4296C19.1848 24.4296 24.4837 19.1306 24.4837 12.6089C24.4565 7.44587 21.1141 3.01652 16.4674 1.44043Z" fill="none"/>
<path d="M8.15217 6.52174H2.71739C2.41848 6.52174 2.17391 6.27717 2.17391 5.97826V0.543478C2.17391 0.244565 2.41848 0 2.71739 0C3.0163 0 3.26087 0.244565 3.26087 0.543478V5.43478H8.15217C8.45109 5.43478 8.69565 5.67935 8.69565 5.97826C8.69565 6.27717 8.45109 6.52174 8.15217 6.52174Z" fill="#6700C1"/>
<path d="M0.570652 13.8582C0.298913 13.8582 0.0543478 13.6408 0.0271739 13.3691C0 13.0702 0 12.7713 0 12.4995C0 12.2006 0.244565 11.9561 0.543478 11.9561C0.842391 11.9561 1.08696 12.2006 1.08696 12.4995C1.08696 12.7713 1.08696 13.0158 1.11413 13.2604C1.1413 13.5593 0.923913 13.8311 0.625 13.8582C0.597826 13.8582 0.597826 13.8582 0.570652 13.8582Z" fill="#6700C1"/>
<path d="M12.5 25C6.95652 25 2.01087 21.2772 0.48913 15.9511C0.407608 15.6522 0.570652 15.3533 0.869565 15.2717C1.16848 15.1902 1.46739 15.3533 1.54891 15.6522C2.93478 20.5163 7.44565 23.913 12.5 23.913C18.8043 23.913 23.913 18.8043 23.913 12.5C23.913 6.19565 18.8043 1.08696 12.5 1.08696C8.88587 1.08696 5.46196 2.82609 3.31522 5.7337C3.125 5.97826 2.79891 6.03261 2.55435 5.84239C2.30978 5.65217 2.25543 5.32609 2.44565 5.08152C4.78261 1.90217 8.53261 0 12.5 0C19.4022 0 25 5.59783 25 12.5C25 19.4022 19.4022 25 12.5 25Z" fill="#6700C1"/>
<path d="M18.4511 17.9081L12.5 11.957V6.79395" fill="none"/>
<path d="M18.4511 18.4511C18.3152 18.4511 18.1793 18.3967 18.0707 18.288L12.1196 12.337C12.0109 12.2283 11.9565 12.0924 11.9565 11.9565V6.79348C11.9565 6.49457 12.2011 6.25 12.5 6.25C12.7989 6.25 13.0435 6.49457 13.0435 6.79348V11.7391L18.8315 17.5272C19.0489 17.7446 19.0489 18.0707 18.8315 18.288C18.7228 18.3967 18.587 18.4511 18.4511 18.4511Z" fill="#6700C1"/>
</g>
<defs>
<clipPath id="clip0_354_26">
<rect width="25" height="25" fill="none"/>
</clipPath>
</defs>
</svg>
