<svg width="40" height="40" viewBox="0 0 40 40" fill="none" xmlns="http://www.w3.org/2000/svg">
<path d="M9.08804 24.8793C6.67204 24.8793 4.70404 22.9113 4.70404 20.4953C4.70404 18.0793 6.67204 16.1113 9.08804 16.1113C11.504 16.1113 13.472 18.0793 13.472 20.4953C13.472 22.9193 11.504 24.8793 9.08804 24.8793ZM9.08804 18.3113C7.88004 18.3113 6.89604 19.2953 6.89604 20.5033C6.89604 21.7113 7.88004 22.6953 9.08804 22.6953C10.296 22.6953 11.28 21.7113 11.28 20.5033C11.28 19.2953 10.296 18.3113 9.08804 18.3113Z" fill="#6700C1"/>
<path d="M27.704 29.2636H25.512C25.512 26.2476 23.056 23.7916 20.04 23.7916C17.024 23.7916 14.568 26.2476 14.568 29.2636H12.376C12.376 25.0396 15.816 21.5996 20.04 21.5996C24.264 21.5996 27.704 25.0396 27.704 29.2636Z" fill="#6700C1"/>
<path d="M30.992 24.8793C28.576 24.8793 26.608 22.9113 26.608 20.4953C26.608 18.0793 28.576 16.1113 30.992 16.1113C33.408 16.1113 35.376 18.0793 35.376 20.4953C35.368 22.9193 33.408 24.8793 30.992 24.8793ZM30.992 18.3113C29.784 18.3113 28.8 19.2953 28.8 20.5033C28.8 21.7113 29.784 22.6953 30.992 22.6953C32.2 22.6953 33.184 21.7113 33.184 20.5033C33.184 19.2953 32.2 18.3113 30.992 18.3113Z" fill="#6700C1"/>
<path d="M20.0401 23.7917C17.0241 23.7917 14.5681 21.3357 14.5681 18.3197C14.5681 15.3037 17.0241 12.8477 20.0401 12.8477C23.0561 12.8477 25.5121 15.3037 25.5121 18.3197C25.5121 21.3357 23.0561 23.7917 20.0401 23.7917ZM20.0401 15.0317C18.2321 15.0317 16.7521 16.5037 16.7521 18.3197C16.7521 20.1357 18.2241 21.6077 20.0401 21.6077C21.8561 21.6077 23.3281 20.1357 23.3281 18.3197C23.3281 16.5037 21.8481 15.0317 20.0401 15.0317Z" fill="#6700C1"/>
<path d="M27.704 29.2633H25.512V28.1673C25.512 25.1513 27.968 22.6953 30.984 22.6953C34 22.6953 36.456 25.1513 36.456 28.1673H34.264C34.264 26.3593 32.792 24.8793 30.976 24.8793C29.16 24.8793 27.688 26.3513 27.688 28.1673V29.2633H27.704Z" fill="#6700C1"/>
<path d="M14.568 29.2633H12.376V28.1673C12.376 26.3593 10.904 24.8793 9.08803 24.8793C7.27203 24.8793 5.80003 26.3513 5.80003 28.1673H3.61603C3.61603 25.1513 6.07203 22.6953 9.08803 22.6953C12.104 22.6953 14.56 25.1513 14.56 28.1673V29.2633H14.568Z" fill="#6700C1"/>
</svg>
