<svg width="25" height="25" viewBox="0 0 25 25" fill="none" xmlns="http://www.w3.org/2000/svg">
<g clip-path="url(#clip0_374_22)">
<path d="M1.04168 25.0003C0.775016 25.0003 0.50835 24.8982 0.305225 24.6951C-0.102067 24.2878 -0.102067 23.6294 0.305225 23.2221L23.2219 0.305469C23.6292 -0.101823 24.2875 -0.101823 24.6948 0.305469C25.1021 0.71276 25.1021 1.37109 24.6948 1.77839L1.77814 24.6951C1.57502 24.8982 1.30835 25.0003 1.04168 25.0003ZM9.37502 5.20859C9.37502 2.91068 7.50627 1.04193 5.20835 1.04193C2.91043 1.04193 1.04168 2.91068 1.04168 5.20859C1.04168 7.50651 2.91043 9.37526 5.20835 9.37526C7.50627 9.37526 9.37502 7.50651 9.37502 5.20859ZM7.29168 5.20859C7.29168 6.35755 6.35731 7.29193 5.20835 7.29193C4.05939 7.29193 3.12502 6.35755 3.12502 5.20859C3.12502 4.05964 4.05939 3.12526 5.20835 3.12526C6.35731 3.12526 7.29168 4.05964 7.29168 5.20859ZM23.9583 19.7919C23.9583 17.494 22.0896 15.6253 19.7917 15.6253C17.4938 15.6253 15.625 17.494 15.625 19.7919C15.625 22.0898 17.4938 23.9586 19.7917 23.9586C22.0896 23.9586 23.9583 22.0898 23.9583 19.7919ZM21.875 19.7919C21.875 20.9409 20.9406 21.8753 19.7917 21.8753C18.6427 21.8753 17.7083 20.9409 17.7083 19.7919C17.7083 18.643 18.6427 17.7086 19.7917 17.7086C20.9406 17.7086 21.875 18.643 21.875 19.7919Z" fill="#6700C1"/>
</g>
<defs>
<clipPath id="clip0_374_22">
<rect width="25" height="25" fill="white"/>
</clipPath>
</defs>
</svg>
