<svg width="30" height="30" viewBox="0 0 30 30" fill="none" xmlns="http://www.w3.org/2000/svg">
<g clip-path="url(#clip0_374_29)">
<path d="M13.7825 15H5V13.75H15.035C14.5825 14.1313 14.165 14.55 13.7812 15H13.7825ZM5 20H11.425C11.5013 19.575 11.5938 19.1562 11.7188 18.75H5V20ZM30 21.875C30 26.355 26.355 30 21.875 30C17.395 30 13.75 26.355 13.75 21.875C13.75 17.395 17.395 13.75 21.875 13.75C26.355 13.75 30 17.395 30 21.875ZM28.75 21.875C28.75 18.0837 25.665 15 21.875 15C18.085 15 15 18.0837 15 21.875C15 25.6663 18.085 28.75 21.875 28.75C25.665 28.75 28.75 25.6663 28.75 21.875ZM21.225 23.69C21.1225 23.7925 21.045 23.8037 20.9237 23.6825L18.6038 21.4338L17.735 22.3312L20.0487 24.5725C20.3237 24.8488 20.69 25 21.0788 25C21.4675 25 21.835 24.8475 22.1062 24.5762L26.4263 20.3275L25.55 19.4362L21.2263 23.6888L21.225 23.69ZM18.75 8.75H5V10H18.75V8.75ZM3.125 28.75C2.09125 28.75 1.25 27.9088 1.25 26.875V3.75H22.5V11.29C22.9237 11.3175 23.3412 11.3675 23.75 11.4425V2.5H20V0H18.75V2.5H15V0H13.75V2.5H10V0H8.75V2.5H5V0H3.75V2.5H0V26.875C0 28.5975 1.40125 30 3.125 30H15.035C14.585 29.6213 14.1737 29.1987 13.795 28.75H3.125Z" fill="#6700C1"/>
</g>
<defs>
<clipPath id="clip0_374_29">
<rect width="30" height="30" fill="white"/>
</clipPath>
</defs>
</svg>
